<svg xmlns="http://www.w3.org/2000/svg" viewBox="0 0 842.0 595.0" width="842.0" height="595.0">
  <rect x="120.00" y="120.00" width="60.00" height="60.00" fill="#0066FF" fill-opacity="0.35" stroke="#0066FF" stroke-width="1.5" />
  <rect x="120.00" y="300.00" width="60.00" height="60.00" fill="#0066FF" fill-opacity="0.35" stroke="#0066FF" stroke-width="1.5" />
  <rect x="120.00" y="480.00" width="60.00" height="60.00" fill="#0066FF" fill-opacity="0.35" stroke="#0066FF" stroke-width="1.5" />
  <rect x="420.00" y="120.00" width="60.00" height="60.00" fill="#0066FF" fill-opacity="0.35" stroke="#0066FF" stroke-width="1.5" />
  <rect x="420.00" y="300.00" width="60.00" height="60.00" fill="#0066FF" fill-opacity="0.35" stroke="#0066FF" stroke-width="1.5" />
  <rect x="420.00" y="480.00" width="60.00" height="60.00" fill="#0066FF" fill-opacity="0.35" stroke="#0066FF" stroke-width="1.5" />
  <rect x="720.00" y="120.00" width="60.00" height="60.00" fill="#0066FF" fill-opacity="0.35" stroke="#0066FF" stroke-width="1.5" />
  <rect x="720.00" y="300.00" width="60.00" height="60.00" fill="#0066FF" fill-opacity="0.35" stroke="#0066FF" stroke-width="1.5" />
  <rect x="720.00" y="480.00" width="60.00" height="60.00" fill="#0066FF" fill-opacity="0.35" stroke="#0066FF" stroke-width="1.5" />
  <rect x="140.00" y="140.00" width="20.00" height="20.00" fill="#0044CC" fill-opacity="0.35" stroke="#0044CC" stroke-width="1.5" />
  <rect x="140.00" y="320.00" width="20.00" height="20.00" fill="#0044CC" fill-opacity="0.35" stroke="#0044CC" stroke-width="1.5" />
  <rect x="140.00" y="500.00" width="20.00" height="20.00" fill="#0044CC" fill-opacity="0.35" stroke="#0044CC" stroke-width="1.5" />
  <rect x="440.00" y="140.00" width="20.00" height="20.00" fill="#0044CC" fill-opacity="0.35" stroke="#0044CC" stroke-width="1.5" />
  <rect x="440.00" y="320.00" width="20.00" height="20.00" fill="#0044CC" fill-opacity="0.35" stroke="#0044CC" stroke-width="1.5" />
  <rect x="440.00" y="500.00" width="20.00" height="20.00" fill="#0044CC" fill-opacity="0.35" stroke="#0044CC" stroke-width="1.5" />
  <rect x="740.00" y="140.00" width="20.00" height="20.00" fill="#0044CC" fill-opacity="0.35" stroke="#0044CC" stroke-width="1.5" />
  <rect x="740.00" y="320.00" width="20.00" height="20.00" fill="#0044CC" fill-opacity="0.35" stroke="#0044CC" stroke-width="1.5" />
  <rect x="740.00" y="500.00" width="20.00" height="20.00" fill="#0044CC" fill-opacity="0.35" stroke="#0044CC" stroke-width="1.5" />
  <rect x="160.00" y="144.00" width="280.00" height="12.00" fill="#FF6600" fill-opacity="0.35" stroke="#FF6600" stroke-width="1.5" />
  <rect x="460.00" y="144.00" width="280.00" height="12.00" fill="#FF6600" fill-opacity="0.35" stroke="#FF6600" stroke-width="1.5" />
  <rect x="160.00" y="324.00" width="280.00" height="12.00" fill="#FF6600" fill-opacity="0.35" stroke="#FF6600" stroke-width="1.5" />
  <rect x="460.00" y="324.00" width="280.00" height="12.00" fill="#FF6600" fill-opacity="0.35" stroke="#FF6600" stroke-width="1.5" />
  <rect x="160.00" y="504.00" width="280.00" height="12.00" fill="#FF6600" fill-opacity="0.35" stroke="#FF6600" stroke-width="1.5" />
  <rect x="460.00" y="504.00" width="280.00" height="12.00" fill="#FF6600" fill-opacity="0.35" stroke="#FF6600" stroke-width="1.5" />
  <rect x="160.00" y="146.00" width="280.00" height="8.00" fill="#FF6600" fill-opacity="0.35" stroke="#FF6600" stroke-width="1.5" />
  <rect x="460.00" y="146.00" width="280.00" height="8.00" fill="#FF6600" fill-opacity="0.35" stroke="#FF6600" stroke-width="1.5" />
  <rect x="160.00" y="506.00" width="280.00" height="8.00" fill="#FF6600" fill-opacity="0.35" stroke="#FF6600" stroke-width="1.5" />
  <rect x="460.00" y="506.00" width="280.00" height="8.00" fill="#FF6600" fill-opacity="0.35" stroke="#FF6600" stroke-width="1.5" />
  <rect x="146.00" y="160.00" width="8.00" height="160.00" fill="#00CC44" fill-opacity="0.35" stroke="#00CC44" stroke-width="1.5" />
  <rect x="146.00" y="340.00" width="8.00" height="160.00" fill="#00CC44" fill-opacity="0.35" stroke="#00CC44" stroke-width="1.5" />
  <rect x="746.00" y="160.00" width="8.00" height="160.00" fill="#00CC44" fill-opacity="0.35" stroke="#00CC44" stroke-width="1.5" />
  <rect x="746.00" y="340.00" width="8.00" height="160.00" fill="#00CC44" fill-opacity="0.35" stroke="#00CC44" stroke-width="1.5" />
</svg>